<?xml version="1.0" encoding="UTF-8" standalone="no"?><!-- Generator: Gravit.io --><svg xmlns="http://www.w3.org/2000/svg" xmlns:xlink="http://www.w3.org/1999/xlink" style="isolation:isolate" viewBox="0 0 150 150" width="150pt" height="150pt"><defs><clipPath id="_clipPath_aimnBJatM24T1jD77VS7Qhc0eINICRmr"><rect width="150" height="150"/></clipPath></defs><g clip-path="url(#_clipPath_aimnBJatM24T1jD77VS7Qhc0eINICRmr)"><g><g><path d=" M 108.778 43 L 108.778 37.667 C 108.778 19.082 93.585 3.889 75 3.889 C 56.415 3.889 41.222 19.082 41.222 37.667 L 41.222 43 C 41.222 68.319 27 70.666 27 96.333 C 27 114.609 32.543 129.165 41.446 146.111 L 108.554 146.111 C 117.457 129.165 123 114.609 123 96.333 C 123 70.666 108.778 68.319 108.778 43 Z " fill="rgb(0,130,235)"/><path d=" M 121.18 82.111 L 108.778 82.111 C 93.027 82.111 79.622 75.43 75 66.221 C 70.378 75.43 56.973 82.111 41.222 82.111 L 28.82 82.111 C 32.653 68.458 41.222 62.666 41.222 43 L 41.222 37.667 C 41.222 37.055 41.222 36.5 41.265 35.889 C 42.182 18.111 57.041 3.889 75 3.889 C 92.956 3.889 107.818 18.111 108.735 35.889 C 108.778 36.5 108.778 37.055 108.778 37.667 L 108.778 43 C 108.778 62.666 117.347 68.458 121.18 82.111 Z " fill="rgb(228,4,73)"/><path d=" M 98.111 37.667 C 98.111 50.431 87.764 60.778 75 60.778 C 62.236 60.778 51.889 50.431 51.889 37.667 C 51.889 24.903 62.236 14.556 75 14.556 C 87.764 14.556 98.111 24.903 98.111 37.667 Z " fill="rgb(255,255,255)"/><clipPath id="_clipPath_9AmlvqrOsx3NbEdfd1gOzjPS0uFUbw0M"><path d=" M 98.111 37.667 C 98.111 50.431 87.764 60.778 75 60.778 C 62.236 60.778 51.889 50.431 51.889 37.667 C 51.889 24.903 62.236 14.556 75 14.556 C 87.764 14.556 98.111 24.903 98.111 37.667 Z " fill="rgb(255,255,255)"/></clipPath><g clip-path="url(#_clipPath_9AmlvqrOsx3NbEdfd1gOzjPS0uFUbw0M)"><path d=" M 99 30.764 C 93.746 20.661 84.706 14.556 75 14.556 C 65.294 14.556 56.254 20.661 51 30.764 C 51.668 30.824 52.341 30.889 53.01 30.889 C 61.513 30.899 69.576 26.211 75 18.105 C 80.424 26.211 88.487 30.899 96.99 30.889 C 97.659 30.889 98.332 30.824 99 30.764 Z " fill="rgb(0,130,235)"/><circle vector-effect="non-scaling-stroke" cx="95.20833333333334" cy="51.417566871449104" r="9" fill="rgb(255,156,173)"/><circle vector-effect="non-scaling-stroke" cx="55" cy="51.41756687144911" r="8.999999999999996" fill="rgb(255,156,173)"/></g><path d=" M 80.82 64.682 C 82.68 72.348 90.25 77.012 97.724 75.1 C 95.86 67.43 88.291 62.762 80.82 64.682 Z  M 69.18 64.682 C 67.32 72.348 59.75 77.012 52.276 75.1 C 54.14 67.43 61.709 62.762 69.18 64.682 Z " fill="rgb(0,130,235)"/><g><path d=" M 81.069 81.069 C 77.715 77.723 72.285 77.723 68.931 81.069 C 65.584 84.424 65.584 89.854 68.931 93.208 C 72.285 96.554 77.715 96.554 81.069 93.208 C 84.416 89.854 84.416 84.424 81.069 81.069 Z " fill="rgb(228,4,73)"/><path d=" M 71.096 91.626 C 70.067 89.598 68.273 88.063 66.111 87.359 C 63.948 86.655 61.594 86.841 59.569 87.875 C 55.347 90.027 53.669 95.194 55.821 99.416 C 57.974 103.638 63.141 105.316 67.363 103.164 C 71.574 101.004 73.244 95.843 71.096 91.626 Z " fill="rgb(228,4,73)"/><path d=" M 76.333 107.747 C 75.854 104.72 73.796 102.178 70.934 101.08 C 68.073 99.982 64.843 100.493 62.462 102.422 C 60.08 104.351 58.908 107.404 59.388 110.431 C 60.128 115.111 64.521 118.304 69.201 117.564 C 73.88 116.823 77.074 112.43 76.333 107.75 L 76.333 107.747 Z " fill="rgb(228,4,73)"/><path d=" M 83.473 100.611 C 78.793 99.87 74.4 103.064 73.66 107.743 C 72.919 112.423 76.113 116.816 80.792 117.556 C 85.471 118.297 89.865 115.103 90.605 110.424 C 91.346 105.745 88.152 101.351 83.473 100.611 L 83.473 100.611 Z " fill="rgb(228,4,73)"/><path d=" M 90.431 87.875 C 88.406 86.841 86.052 86.655 83.889 87.359 C 81.727 88.063 79.933 89.598 78.904 91.626 C 77.452 94.362 77.588 97.668 79.26 100.276 C 80.932 102.883 83.88 104.386 86.972 104.208 C 90.065 104.03 92.821 102.198 94.182 99.416 C 95.216 97.388 95.401 95.033 94.698 92.868 C 93.994 90.704 92.459 88.907 90.431 87.875 Z " fill="rgb(228,4,73)"/><path d=" M 83.444 99.142 C 83.44 103.88 79.595 107.716 74.858 107.711 C 70.12 107.706 66.284 103.862 66.289 99.124 C 66.293 94.387 70.136 90.55 74.874 90.554 C 79.611 90.558 83.448 94.401 83.444 99.139 L 83.444 99.142 Z " fill="rgb(0,0,0)"/></g><g><path d=" M 44.167 86.963 C 42.323 85.124 39.338 85.124 37.494 86.963 C 35.655 88.807 35.655 91.792 37.494 93.636 C 39.338 95.475 42.323 95.475 44.167 93.636 C 46.006 91.792 46.006 88.807 44.167 86.963 Z " fill="rgb(228,4,73)"/><path d=" M 38.684 92.766 C 38.119 91.652 37.133 90.808 35.944 90.421 C 34.755 90.034 33.461 90.136 32.348 90.704 C 30.027 91.887 29.105 94.728 30.288 97.049 C 31.471 99.369 34.311 100.292 36.632 99.109 C 38.947 97.921 39.865 95.085 38.684 92.766 Z " fill="rgb(228,4,73)"/><path d=" M 41.563 101.628 C 41.3 99.964 40.168 98.567 38.596 97.963 C 37.023 97.36 35.247 97.641 33.938 98.701 C 32.629 99.761 31.985 101.439 32.248 103.103 C 32.655 105.676 35.07 107.431 37.643 107.024 C 40.215 106.617 41.97 104.202 41.563 101.63 L 41.563 101.628 Z " fill="rgb(228,4,73)"/><path d=" M 45.488 97.705 C 42.916 97.298 40.5 99.054 40.093 101.626 C 39.687 104.198 41.442 106.613 44.014 107.02 C 46.586 107.427 49.002 105.672 49.408 103.1 C 49.815 100.527 48.06 98.112 45.488 97.705 L 45.488 97.705 Z " fill="rgb(228,4,73)"/><path d=" M 49.313 90.704 C 48.199 90.136 46.905 90.034 45.717 90.421 C 44.528 90.808 43.542 91.652 42.976 92.766 C 42.178 94.27 42.253 96.088 43.172 97.521 C 44.091 98.954 45.712 99.781 47.411 99.683 C 49.111 99.585 50.626 98.578 51.375 97.049 C 51.943 95.934 52.045 94.639 51.658 93.449 C 51.271 92.259 50.428 91.272 49.313 90.704 Z " fill="rgb(228,4,73)"/><path d=" M 45.472 96.898 C 45.469 99.502 43.356 101.611 40.752 101.608 C 38.148 101.606 36.039 99.492 36.042 96.888 C 36.044 94.284 38.157 92.175 40.761 92.177 C 43.365 92.179 45.474 94.292 45.472 96.896 L 45.472 96.898 Z " fill="rgb(0,130,235)"/></g><g><path d=" M 112.118 87.229 C 110.274 85.39 107.289 85.39 105.445 87.229 C 103.606 89.073 103.606 92.058 105.445 93.902 C 107.289 95.741 110.274 95.741 112.118 93.902 C 113.957 92.058 113.957 89.073 112.118 87.229 Z " fill="rgb(228,4,73)"/><path d=" M 106.635 93.032 C 106.07 91.918 105.084 91.074 103.895 90.687 C 102.706 90.3 101.412 90.402 100.299 90.97 C 97.978 92.153 97.056 94.994 98.239 97.315 C 99.422 99.635 102.262 100.558 104.583 99.375 C 106.898 98.187 107.816 95.351 106.635 93.032 Z " fill="rgb(228,4,73)"/><path d=" M 109.514 101.894 C 109.251 100.23 108.119 98.833 106.547 98.229 C 104.974 97.626 103.198 97.907 101.889 98.967 C 100.58 100.027 99.936 101.705 100.199 103.369 C 100.606 105.942 103.021 107.697 105.594 107.29 C 108.166 106.883 109.921 104.468 109.514 101.896 L 109.514 101.894 Z " fill="rgb(228,4,73)"/><path d=" M 113.439 97.971 C 110.867 97.564 108.452 99.32 108.045 101.892 C 107.638 104.464 109.393 106.879 111.965 107.286 C 114.538 107.693 116.953 105.938 117.36 103.366 C 117.767 100.793 116.011 98.378 113.439 97.971 L 113.439 97.971 Z " fill="rgb(228,4,73)"/><path d=" M 117.264 90.97 C 116.15 90.402 114.857 90.3 113.668 90.687 C 112.479 91.074 111.493 91.918 110.927 93.032 C 110.129 94.536 110.204 96.354 111.123 97.787 C 112.042 99.22 113.663 100.047 115.363 99.949 C 117.062 99.851 118.577 98.844 119.326 97.315 C 119.894 96.2 119.996 94.905 119.609 93.715 C 119.222 92.525 118.379 91.538 117.264 90.97 Z " fill="rgb(228,4,73)"/><path d=" M 113.423 97.164 C 113.421 99.768 111.307 101.877 108.703 101.874 C 106.099 101.872 103.99 99.758 103.993 97.154 C 103.995 94.55 106.108 92.441 108.712 92.443 C 111.316 92.445 113.425 94.558 113.423 97.162 L 113.423 97.164 Z " fill="rgb(0,130,235)"/></g><g><path d=" M 55.225 119.05 C 53.381 117.21 50.396 117.21 48.552 119.05 C 46.713 120.894 46.713 123.878 48.552 125.722 C 50.396 127.562 53.381 127.562 55.225 125.722 C 57.064 123.878 57.064 120.894 55.225 119.05 Z " fill="rgb(228,4,73)"/><path d=" M 49.743 124.853 C 49.177 123.738 48.191 122.894 47.002 122.507 C 45.813 122.12 44.52 122.222 43.406 122.791 C 41.085 123.974 40.163 126.814 41.346 129.135 C 42.529 131.456 45.37 132.378 47.69 131.195 C 50.005 130.008 50.923 127.171 49.743 124.853 Z " fill="rgb(228,4,73)"/><path d=" M 52.621 133.714 C 52.358 132.05 51.227 130.653 49.654 130.049 C 48.081 129.446 46.305 129.727 44.996 130.787 C 43.687 131.848 43.043 133.526 43.306 135.19 C 43.713 137.762 46.129 139.517 48.701 139.11 C 51.273 138.703 53.028 136.288 52.621 133.716 L 52.621 133.714 Z " fill="rgb(228,4,73)"/><path d=" M 56.546 129.791 C 53.974 129.385 51.559 131.14 51.152 133.712 C 50.745 136.284 52.5 138.7 55.072 139.106 C 57.645 139.513 60.06 137.758 60.467 135.186 C 60.874 132.614 59.118 130.198 56.546 129.791 L 56.546 129.791 Z " fill="rgb(228,4,73)"/><path d=" M 60.371 122.791 C 59.257 122.222 57.964 122.12 56.775 122.507 C 55.586 122.894 54.6 123.738 54.035 124.853 C 53.236 126.356 53.311 128.174 54.23 129.607 C 55.149 131.041 56.77 131.867 58.47 131.769 C 60.17 131.671 61.684 130.664 62.433 129.135 C 63.001 128.02 63.103 126.725 62.716 125.536 C 62.329 124.346 61.486 123.358 60.371 122.791 Z " fill="rgb(228,4,73)"/><path d=" M 56.53 128.984 C 56.528 131.588 54.414 133.697 51.81 133.695 C 49.206 133.692 47.097 131.579 47.1 128.975 C 47.102 126.37 49.215 124.261 51.819 124.263 C 54.423 124.265 56.533 126.378 56.53 128.982 L 56.53 128.984 Z " fill="rgb(0,130,235)"/></g><g><path d=" M 101.059 119.05 C 99.216 117.21 96.231 117.21 94.387 119.05 C 92.548 120.894 92.548 123.878 94.387 125.722 C 96.231 127.562 99.216 127.562 101.059 125.722 C 102.899 123.878 102.899 120.894 101.059 119.05 Z " fill="rgb(228,4,73)"/><path d=" M 95.577 124.853 C 95.011 123.738 94.025 122.894 92.837 122.507 C 91.648 122.12 90.354 122.222 89.241 122.791 C 86.92 123.974 85.998 126.814 87.181 129.135 C 88.364 131.456 91.204 132.378 93.525 131.195 C 95.84 130.008 96.758 127.171 95.577 124.853 Z " fill="rgb(228,4,73)"/><path d=" M 98.456 133.714 C 98.193 132.05 97.061 130.653 95.488 130.049 C 93.916 129.446 92.14 129.727 90.831 130.787 C 89.522 131.848 88.878 133.526 89.141 135.19 C 89.548 137.762 91.963 139.517 94.535 139.11 C 97.108 138.703 98.863 136.288 98.456 133.716 L 98.456 133.714 Z " fill="rgb(228,4,73)"/><path d=" M 102.381 129.791 C 99.808 129.385 97.393 131.14 96.986 133.712 C 96.579 136.284 98.335 138.7 100.907 139.106 C 103.479 139.513 105.894 137.758 106.301 135.186 C 106.708 132.614 104.953 130.198 102.381 129.791 L 102.381 129.791 Z " fill="rgb(228,4,73)"/><path d=" M 106.206 122.791 C 105.092 122.222 103.798 122.12 102.61 122.507 C 101.421 122.894 100.435 123.738 99.869 124.853 C 99.071 126.356 99.146 128.174 100.065 129.607 C 100.984 131.041 102.604 131.867 104.304 131.769 C 106.004 131.671 107.519 130.664 108.268 129.135 C 108.836 128.02 108.938 126.725 108.551 125.536 C 108.164 124.346 107.32 123.358 106.206 122.791 Z " fill="rgb(228,4,73)"/><path d=" M 102.365 128.984 C 102.362 131.588 100.249 133.697 97.645 133.695 C 95.041 133.692 92.932 131.579 92.935 128.975 C 92.937 126.37 95.05 124.261 97.654 124.263 C 100.258 124.265 102.367 126.378 102.365 128.982 L 102.365 128.984 Z " fill="rgb(0,130,235)"/></g><path d=" M 108.778 146.111 L 41.222 146.111 C 39.267 146.111 37.667 144.511 37.667 142.556 C 37.667 140.6 39.267 139 41.222 139 L 108.778 139 C 110.733 139 112.333 140.6 112.333 142.556 C 112.333 144.511 110.733 146.111 108.778 146.111 Z " fill="rgb(0,130,235)"/></g><circle vector-effect="non-scaling-stroke" cx="64.20788323094209" cy="38.333783435724555" r="3.916216564275455" fill="rgb(0,0,0)"/><circle vector-effect="non-scaling-stroke" cx="84.95900848692013" cy="38.58355838452895" r="4.165991513079845" fill="rgb(0,0,0)"/></g></g></svg>